
<svg xmlns="http://www.w3.org/2000/svg" xmlns:xlink="http://www.w3.org/1999/xlink" width="53" height="47" viewBox="0 0 53 47">
                            <defs>
                                <filter id="Trazado_565" x="10.714" y="-1" width="30.935" height="29.806" filterUnits="userSpaceOnUse">
                                    <feOffset dy="1" input="SourceAlpha"></feOffset>
                                    <feGaussianBlur stdDeviation="1" result="blur"></feGaussianBlur>
                                    <feFlood flood-color="#bcad3d"></feFlood>
                                    <feComposite operator="in" in2="blur"></feComposite>
                                    <feComposite in="SourceGraphic"></feComposite>
                                </filter>
                                <filter id="Trazado_565-2" x="23.714" y="18" width="30.935" height="29.806" filterUnits="userSpaceOnUse">
                                    <feOffset dy="1" input="SourceAlpha"></feOffset>
                                    <feGaussianBlur stdDeviation="1" result="blur-2"></feGaussianBlur>
                                    <feFlood flood-color="#bcad3d"></feFlood>
                                    <feComposite operator="in" in2="blur-2"></feComposite>
                                    <feComposite in="SourceGraphic"></feComposite>
                                </filter>
                                <filter id="Trazado_565-3" x="-2.286" y="18" width="30.935" height="29.806" filterUnits="userSpaceOnUse">
                                    <feOffset dy="1" input="SourceAlpha"></feOffset>
                                    <feGaussianBlur stdDeviation="1" result="blur-3"></feGaussianBlur>
                                    <feFlood flood-color="#bcad3d"></feFlood>
                                    <feComposite operator="in" in2="blur-3"></feComposite>
                                    <feComposite in="SourceGraphic"></feComposite>
                                </filter>
                                <clipPath id="clip-Mesa_de_trabajo_14">
                                    <rect width="53" height="47"></rect>
                                </clipPath>
                            </defs>
                            <g id="Mesa_de_trabajo_14" data-name="Mesa de trabajo – 14" clip-path="url(#clip-Mesa_de_trabajo_14)">
                                <g id="noun_Star_3325744" transform="translate(-94 -13.7)">
                                    <g id="Grupo_378" data-name="Grupo 378" transform="translate(105.351 11)">
                                        <g transform="matrix(1, 0, 0, 1, -11.35, 2.7)" filter="url(#Trazado_565)">
                                            <path id="Trazado_565-4" data-name="Trazado 565" d="M27.025,13.622l-5.691,5.27L22.819,26.5a.861.861,0,0,1-1.262.9l-6.729-3.785-6.8,3.764a.841.841,0,0,1-1.232-.9L8.3,18.875,2.631,13.588a.841.841,0,0,1,.475-1.451l7.7-.921,3.268-7.032a.833.833,0,0,1,1.514,0l3.268,7.041,7.7.938a.841.841,0,0,1,.467,1.455Z" transform="translate(11.35 -2.7)" fill="#ffef79"></path>
                                        </g>
                                    </g>
                                    <g id="Grupo_379" data-name="Grupo 379" transform="translate(118.351 30)">
                                        <g transform="matrix(1, 0, 0, 1, -24.35, -16.3)" filter="url(#Trazado_565-2)">
                                            <path id="Trazado_565-5" data-name="Trazado 565" d="M27.025,13.622l-5.691,5.27L22.819,26.5a.861.861,0,0,1-1.262.9l-6.729-3.785-6.8,3.764a.841.841,0,0,1-1.232-.9L8.3,18.875,2.631,13.588a.841.841,0,0,1,.475-1.451l7.7-.921,3.268-7.032a.833.833,0,0,1,1.514,0l3.268,7.041,7.7.938a.841.841,0,0,1,.467,1.455Z" transform="translate(24.35 16.3)" fill="#ffef79"></path>
                                        </g>
                                    </g>
                                    <g id="Grupo_380" data-name="Grupo 380" transform="translate(92.351 30)">
                                        <g transform="matrix(1, 0, 0, 1, 1.65, -16.3)" filter="url(#Trazado_565-3)">
                                            <path id="Trazado_565-6" data-name="Trazado 565" d="M27.025,13.622l-5.691,5.27L22.819,26.5a.861.861,0,0,1-1.262.9l-6.729-3.785-6.8,3.764a.841.841,0,0,1-1.232-.9L8.3,18.875,2.631,13.588a.841.841,0,0,1,.475-1.451l7.7-.921,3.268-7.032a.833.833,0,0,1,1.514,0l3.268,7.041,7.7.938a.841.841,0,0,1,.467,1.455Z" transform="translate(-1.65 16.3)" fill="#ffef79"></path>
                                        </g>
                                    </g>
                                </g>
                            </g>
                        </svg>